<svg xmlns="http://www.w3.org/2000/svg" xmlns:xlink="http://www.w3.org/1999/xlink" width="500" zoomAndPan="magnify" viewBox="0 0 375 374.999991" height="500" preserveAspectRatio="xMidYMid meet" version="1.0"><defs><g/><clipPath id="1ee64067c3"><path d="M 89.4375 156.714844 L 152 156.714844 L 152 218.476562 L 89.4375 218.476562 Z M 89.4375 156.714844 " clip-rule="nonzero"/></clipPath><clipPath id="1d7595312e"><path d="M 112 186 L 200.609375 186 L 200.609375 189 L 112 189 Z M 112 186 " clip-rule="nonzero"/></clipPath></defs><rect x="-37.5" width="450" fill="#ffffff" y="-37.499999" height="449.999989" fill-opacity="1"/><rect x="-37.5" width="450" fill="#ffffff" y="-37.499999" height="449.999989" fill-opacity="1"/><g clip-path="url(#1ee64067c3)"><path fill="#866531" d="M 120.269531 218.285156 C 103.292969 218.285156 89.484375 204.476562 89.484375 187.5 C 89.484375 170.523438 103.292969 156.714844 120.269531 156.714844 C 129.660156 156.714844 138.410156 160.898438 144.28125 168.226562 C 144.542969 168.546875 144.484375 168.980469 144.164062 169.242188 C 143.84375 169.503906 143.410156 169.445312 143.148438 169.125 C 137.539062 162.148438 129.195312 158.136719 120.269531 158.136719 C 104.105469 158.167969 90.9375 171.335938 90.9375 187.5 C 90.9375 203.660156 104.105469 216.832031 120.269531 216.832031 C 136.433594 216.832031 149.601562 203.660156 149.601562 187.5 C 149.601562 187.09375 149.921875 186.773438 150.328125 186.773438 C 150.734375 186.773438 151.054688 187.09375 151.054688 187.5 C 151.054688 204.476562 137.246094 218.285156 120.269531 218.285156 Z M 120.269531 218.285156 " fill-opacity="1" fill-rule="nonzero"/></g><g clip-path="url(#1d7595312e)"><path fill="#866531" d="M 200.414062 188.226562 L 113.496094 188.226562 C 113.089844 188.226562 112.769531 187.90625 112.769531 187.5 C 112.769531 187.09375 113.089844 186.773438 113.496094 186.773438 L 200.445312 186.773438 C 200.851562 186.773438 201.171875 187.09375 201.171875 187.5 C 201.140625 187.90625 200.824219 188.226562 200.414062 188.226562 Z M 200.414062 188.226562 " fill-opacity="1" fill-rule="nonzero"/></g><path fill="#866531" d="M 180.183594 184.128906 L 129.515625 184.128906 C 129.105469 184.128906 128.789062 183.808594 128.789062 183.398438 C 128.789062 182.992188 129.105469 182.671875 129.515625 182.671875 L 180.183594 182.671875 C 180.589844 182.671875 180.910156 182.992188 180.910156 183.398438 C 180.910156 183.808594 180.589844 184.128906 180.183594 184.128906 Z M 180.183594 184.128906 " fill-opacity="1" fill-rule="nonzero"/><path fill="#866531" d="M 150.9375 175.871094 L 115.5625 175.871094 C 115.152344 175.871094 114.832031 175.550781 114.832031 175.144531 C 114.832031 174.738281 115.152344 174.417969 115.5625 174.417969 L 150.9375 174.417969 C 151.34375 174.417969 151.664062 174.738281 151.664062 175.144531 C 151.664062 175.550781 151.34375 175.871094 150.9375 175.871094 Z M 150.9375 175.871094 " fill-opacity="1" fill-rule="nonzero"/><path fill="#866531" d="M 188.875 178.835938 L 153.496094 178.835938 C 153.089844 178.835938 152.769531 178.515625 152.769531 178.109375 C 152.769531 177.703125 153.089844 177.382812 153.496094 177.382812 L 188.875 177.382812 C 189.28125 177.382812 189.601562 177.703125 189.601562 178.109375 C 189.601562 178.515625 189.28125 178.835938 188.875 178.835938 Z M 188.875 178.835938 " fill-opacity="1" fill-rule="nonzero"/><path fill="#866531" d="M 140.355469 181.335938 L 108.003906 181.335938 C 107.59375 181.335938 107.277344 181.015625 107.277344 180.609375 C 107.277344 180.203125 107.59375 179.882812 108.003906 179.882812 L 140.355469 179.882812 C 140.765625 179.882812 141.082031 180.203125 141.082031 180.609375 C 141.082031 181.015625 140.734375 181.335938 140.355469 181.335938 Z M 140.355469 181.335938 " fill-opacity="1" fill-rule="nonzero"/><path fill="#866531" d="M 145.386719 192.964844 L 105.53125 192.964844 C 105.125 192.964844 104.804688 192.644531 104.804688 192.238281 C 104.804688 191.832031 105.125 191.511719 105.53125 191.511719 L 145.386719 191.511719 C 145.792969 191.511719 146.113281 191.832031 146.113281 192.238281 C 146.113281 192.644531 145.792969 192.964844 145.386719 192.964844 Z M 145.386719 192.964844 " fill-opacity="1" fill-rule="nonzero"/><path fill="#866531" d="M 175.097656 191.105469 L 153.496094 191.105469 C 153.089844 191.105469 152.769531 190.785156 152.769531 190.378906 C 152.769531 189.96875 153.089844 189.648438 153.496094 189.648438 L 175.097656 189.648438 C 175.503906 189.648438 175.824219 189.96875 175.824219 190.378906 C 175.824219 190.785156 175.503906 191.105469 175.097656 191.105469 Z M 175.097656 191.105469 " fill-opacity="1" fill-rule="nonzero"/><g fill="#272727" fill-opacity="1"><g transform="translate(103.447131, 207.561318)"><g><path d="M 24.953125 -27.34375 L 11.40625 -5.46875 L 24.0625 -5.46875 L 24.0625 0 L 0.53125 0 L 14.046875 -21.875 L 2.453125 -21.875 L 2.453125 -27.34375 Z M 24.953125 -27.34375 "/></g></g></g><g fill="#272727" fill-opacity="1"><g transform="translate(128.933428, 207.561318)"><g><path d="M 3.140625 -2.09375 C 1.554688 -3.832031 0.765625 -5.960938 0.765625 -8.484375 C 0.765625 -11.003906 1.554688 -13.132812 3.140625 -14.875 C 4.734375 -16.625 6.757812 -17.5 9.21875 -17.5 C 11.46875 -17.5 13.320312 -16.789062 14.78125 -15.375 L 14.78125 -17 L 20.640625 -17 L 20.640625 0 L 14.84375 0 L 14.84375 -1.921875 L 14.78125 -1.921875 C 13.320312 -0.304688 11.46875 0.5 9.21875 0.5 C 6.757812 0.5 4.734375 -0.363281 3.140625 -2.09375 Z M 8.140625 -11.359375 C 7.378906 -10.609375 7 -9.648438 7 -8.484375 C 7 -7.316406 7.363281 -6.359375 8.09375 -5.609375 C 8.820312 -4.867188 9.78125 -4.5 10.96875 -4.5 C 12.113281 -4.5 13.054688 -4.875 13.796875 -5.625 C 14.535156 -6.382812 14.90625 -7.335938 14.90625 -8.484375 C 14.90625 -9.648438 14.523438 -10.609375 13.765625 -11.359375 C 13.003906 -12.117188 12.070312 -12.5 10.96875 -12.5 C 9.84375 -12.5 8.898438 -12.117188 8.140625 -11.359375 Z M 8.140625 -11.359375 "/></g></g></g><g fill="#272727" fill-opacity="1"><g transform="translate(151.569505, 207.561318)"><g><path d="M 1.984375 0 L 1.984375 -17 L 7.859375 -17 L 7.859375 -15.21875 L 7.921875 -15.21875 C 9.441406 -16.738281 11.066406 -17.5 12.796875 -17.5 C 13.628906 -17.5 14.457031 -17.382812 15.28125 -17.15625 C 16.113281 -16.9375 16.910156 -16.59375 17.671875 -16.125 C 18.441406 -15.664062 19.0625 -15.007812 19.53125 -14.15625 C 20.007812 -13.3125 20.25 -12.328125 20.25 -11.203125 L 20.25 0 L 14.390625 0 L 14.390625 -9.609375 C 14.390625 -10.492188 14.101562 -11.265625 13.53125 -11.921875 C 12.96875 -12.585938 12.234375 -12.921875 11.328125 -12.921875 C 10.453125 -12.921875 9.65625 -12.578125 8.9375 -11.890625 C 8.21875 -11.210938 7.859375 -10.453125 7.859375 -9.609375 L 7.859375 0 Z M 1.984375 0 "/></g></g></g><g fill="#272727" fill-opacity="1"><g transform="translate(173.476451, 207.561318)"><g><path d="M 9.375 -17.5 C 10.351562 -17.5 11.316406 -17.382812 12.265625 -17.15625 C 13.210938 -16.9375 13.921875 -16.71875 14.390625 -16.5 L 15.078125 -16.171875 L 13.15625 -12.328125 C 11.832031 -13.035156 10.570312 -13.390625 9.375 -13.390625 C 8.71875 -13.390625 8.25 -13.316406 7.96875 -13.171875 C 7.695312 -13.023438 7.5625 -12.753906 7.5625 -12.359375 C 7.5625 -12.273438 7.570312 -12.1875 7.59375 -12.09375 C 7.613281 -12.007812 7.65625 -11.925781 7.71875 -11.84375 C 7.789062 -11.769531 7.851562 -11.703125 7.90625 -11.640625 C 7.957031 -11.585938 8.050781 -11.53125 8.1875 -11.46875 C 8.320312 -11.40625 8.425781 -11.351562 8.5 -11.3125 C 8.570312 -11.28125 8.695312 -11.226562 8.875 -11.15625 C 9.050781 -11.09375 9.179688 -11.046875 9.265625 -11.015625 C 9.359375 -10.984375 9.507812 -10.929688 9.71875 -10.859375 C 9.9375 -10.796875 10.097656 -10.753906 10.203125 -10.734375 C 10.890625 -10.535156 11.488281 -10.3125 12 -10.0625 C 12.507812 -9.820312 13.046875 -9.492188 13.609375 -9.078125 C 14.171875 -8.660156 14.601562 -8.128906 14.90625 -7.484375 C 15.21875 -6.847656 15.375 -6.117188 15.375 -5.296875 C 15.375 -1.429688 12.691406 0.5 7.328125 0.5 C 6.109375 0.5 4.953125 0.3125 3.859375 -0.0625 C 2.765625 -0.4375 1.972656 -0.8125 1.484375 -1.1875 L 0.765625 -1.796875 L 3.140625 -5.796875 C 3.316406 -5.640625 3.550781 -5.457031 3.84375 -5.25 C 4.132812 -5.039062 4.65625 -4.753906 5.40625 -4.390625 C 6.15625 -4.023438 6.804688 -3.84375 7.359375 -3.84375 C 8.578125 -3.84375 9.1875 -4.253906 9.1875 -5.078125 C 9.1875 -5.453125 9.03125 -5.742188 8.71875 -5.953125 C 8.40625 -6.160156 7.878906 -6.394531 7.140625 -6.65625 C 6.398438 -6.925781 5.820312 -7.171875 5.40625 -7.390625 C 4.34375 -7.941406 3.5 -8.566406 2.875 -9.265625 C 2.257812 -9.960938 1.953125 -10.882812 1.953125 -12.03125 C 1.953125 -13.75 2.617188 -15.085938 3.953125 -16.046875 C 5.296875 -17.015625 7.101562 -17.5 9.375 -17.5 Z M 9.375 -17.5 "/></g></g></g><g fill="#272727" fill-opacity="1"><g transform="translate(189.78238, 207.561318)"><g><path d="M 19.484375 -14.890625 C 21.078125 -13.160156 21.875 -11.035156 21.875 -8.515625 C 21.875 -5.992188 21.078125 -3.859375 19.484375 -2.109375 C 17.890625 -0.367188 15.867188 0.5 13.421875 0.5 C 11.171875 0.5 9.316406 -0.207031 7.859375 -1.625 L 7.859375 8.609375 L 1.984375 8.609375 L 1.984375 -17 L 7.78125 -17 L 7.78125 -15.078125 L 7.859375 -15.078125 C 9.316406 -16.691406 11.171875 -17.5 13.421875 -17.5 C 15.867188 -17.5 17.890625 -16.628906 19.484375 -14.890625 Z M 14.5 -5.625 C 15.257812 -6.382812 15.640625 -7.347656 15.640625 -8.515625 C 15.640625 -9.691406 15.273438 -10.648438 14.546875 -11.390625 C 13.816406 -12.128906 12.859375 -12.5 11.671875 -12.5 C 10.515625 -12.5 9.566406 -12.117188 8.828125 -11.359375 C 8.085938 -10.609375 7.71875 -9.660156 7.71875 -8.515625 C 7.71875 -7.347656 8.097656 -6.382812 8.859375 -5.625 C 9.628906 -4.875 10.566406 -4.5 11.671875 -4.5 C 12.796875 -4.5 13.738281 -4.875 14.5 -5.625 Z M 14.5 -5.625 "/></g></g></g><g fill="#272727" fill-opacity="1"><g transform="translate(212.418457, 207.561318)"><g><path d="M 1.984375 0 L 1.984375 -28.5 L 7.859375 -28.5 L 7.859375 -15.21875 L 7.921875 -15.21875 C 9.441406 -16.738281 11.066406 -17.5 12.796875 -17.5 C 13.628906 -17.5 14.457031 -17.382812 15.28125 -17.15625 C 16.113281 -16.9375 16.910156 -16.59375 17.671875 -16.125 C 18.441406 -15.664062 19.0625 -15.007812 19.53125 -14.15625 C 20.007812 -13.3125 20.25 -12.328125 20.25 -11.203125 L 20.25 0 L 14.390625 0 L 14.390625 -9.609375 C 14.390625 -10.492188 14.101562 -11.265625 13.53125 -11.921875 C 12.96875 -12.585938 12.234375 -12.921875 11.328125 -12.921875 C 10.453125 -12.921875 9.65625 -12.578125 8.9375 -11.890625 C 8.21875 -11.210938 7.859375 -10.453125 7.859375 -9.609375 L 7.859375 0 Z M 1.984375 0 "/></g></g></g><g fill="#272727" fill-opacity="1"><g transform="translate(234.325397, 207.561318)"><g><path d="M 19.1875 -7.6875 L 6.859375 -7.6875 C 6.859375 -6.5 7.242188 -5.613281 8.015625 -5.03125 C 8.796875 -4.457031 9.632812 -4.171875 10.53125 -4.171875 C 11.488281 -4.171875 12.242188 -4.296875 12.796875 -4.546875 C 13.347656 -4.804688 13.976562 -5.3125 14.6875 -6.0625 L 18.921875 -3.9375 C 17.148438 -0.976562 14.210938 0.5 10.109375 0.5 C 7.546875 0.5 5.347656 -0.375 3.515625 -2.125 C 1.679688 -3.882812 0.765625 -6.003906 0.765625 -8.484375 C 0.765625 -10.960938 1.679688 -13.082031 3.515625 -14.84375 C 5.347656 -16.613281 7.546875 -17.5 10.109375 -17.5 C 12.804688 -17.5 15 -16.71875 16.6875 -15.15625 C 18.375 -13.601562 19.21875 -11.378906 19.21875 -8.484375 C 19.21875 -8.085938 19.207031 -7.820312 19.1875 -7.6875 Z M 7.03125 -10.9375 L 13.484375 -10.9375 C 13.359375 -11.820312 13.007812 -12.5 12.4375 -12.96875 C 11.875 -13.445312 11.15625 -13.6875 10.28125 -13.6875 C 9.300781 -13.6875 8.523438 -13.429688 7.953125 -12.921875 C 7.378906 -12.410156 7.070312 -11.75 7.03125 -10.9375 Z M 7.03125 -10.9375 "/></g></g></g><g fill="#272727" fill-opacity="1"><g transform="translate(254.3101, 207.561318)"><g><path d="M 1.984375 0 L 1.984375 -17 L 7.859375 -17 L 7.859375 -14.546875 L 7.921875 -14.546875 C 7.960938 -14.640625 8.03125 -14.75 8.125 -14.875 C 8.226562 -15.007812 8.445312 -15.242188 8.78125 -15.578125 C 9.113281 -15.910156 9.46875 -16.207031 9.84375 -16.46875 C 10.21875 -16.738281 10.703125 -16.976562 11.296875 -17.1875 C 11.898438 -17.394531 12.507812 -17.5 13.125 -17.5 C 13.757812 -17.5 14.382812 -17.410156 15 -17.234375 C 15.625 -17.054688 16.082031 -16.878906 16.375 -16.703125 L 16.828125 -16.4375 L 14.390625 -11.46875 C 13.660156 -12.082031 12.640625 -12.390625 11.328125 -12.390625 C 10.628906 -12.390625 10.023438 -12.234375 9.515625 -11.921875 C 9.003906 -11.617188 8.644531 -11.242188 8.4375 -10.796875 C 8.226562 -10.359375 8.078125 -9.984375 7.984375 -9.671875 C 7.898438 -9.367188 7.859375 -9.128906 7.859375 -8.953125 L 7.859375 0 Z M 1.984375 0 "/></g></g></g><g fill="#272727" fill-opacity="1"><g transform="translate(270.814882, 207.561318)"><g><path d="M 19.1875 -7.6875 L 6.859375 -7.6875 C 6.859375 -6.5 7.242188 -5.613281 8.015625 -5.03125 C 8.796875 -4.457031 9.632812 -4.171875 10.53125 -4.171875 C 11.488281 -4.171875 12.242188 -4.296875 12.796875 -4.546875 C 13.347656 -4.804688 13.976562 -5.3125 14.6875 -6.0625 L 18.921875 -3.9375 C 17.148438 -0.976562 14.210938 0.5 10.109375 0.5 C 7.546875 0.5 5.347656 -0.375 3.515625 -2.125 C 1.679688 -3.882812 0.765625 -6.003906 0.765625 -8.484375 C 0.765625 -10.960938 1.679688 -13.082031 3.515625 -14.84375 C 5.347656 -16.613281 7.546875 -17.5 10.109375 -17.5 C 12.804688 -17.5 15 -16.71875 16.6875 -15.15625 C 18.375 -13.601562 19.21875 -11.378906 19.21875 -8.484375 C 19.21875 -8.085938 19.207031 -7.820312 19.1875 -7.6875 Z M 7.03125 -10.9375 L 13.484375 -10.9375 C 13.359375 -11.820312 13.007812 -12.5 12.4375 -12.96875 C 11.875 -13.445312 11.15625 -13.6875 10.28125 -13.6875 C 9.300781 -13.6875 8.523438 -13.429688 7.953125 -12.921875 C 7.378906 -12.410156 7.070312 -11.75 7.03125 -10.9375 Z M 7.03125 -10.9375 "/></g></g></g></svg>